# xmcd
#
# Track frame offsets: 
#        150
#        28367
#        56584
#        69259
#        81934
#        98563
#        115192
#        136408
#        157625
#        182258
#        206815
#        243654
#        280507
#        306455
#        332403
#        352151
#
# Disc length: 4728 seconds
#
# Revision: 0
# Processed by: cddbd v1.5.2PL0 Copyright (c) Steve Scherf et al.
# Submitted via: ExactAudioCopyFreeDBPlugin 1.0
#
DISCID=df127610
DTITLE=Hal Leonard - Guitar Play-Along - Vol. 140: More Stevie Ray Vau
DTITLE=ghan
DYEAR=2012
DGENRE=Blues
TTITLE0=Ain't Gone 'n' Give Up on Love (demo)
TTITLE1=Ain't Gone 'n' Give Up on Love (play-along)
TTITLE2=Honey Bee (demo)
TTITLE3=Honey Bee (play-along)
TTITLE4=Pride and Joy (demo)
TTITLE5=Pride and Joy (play-along)
TTITLE6=Rude Mood (demo)
TTITLE7=Rude Mood (play-along)
TTITLE8=Texas Flood (demo)
TTITLE9=Texas Flood (play-along)
TTITLE10=Voodoo Child (Slight Return) (demo)
TTITLE11=Voodoo Child (Slight Return) (play-along)
TTITLE12=Wall of Denial (demo)
TTITLE13=Wall of Denial (play-along)
TTITLE14=Tuning Notes
TTITLE15=Data
EXTD=
EXTT0=
EXTT1=
EXTT2=
EXTT3=
EXTT4=
EXTT5=
EXTT6=
EXTT7=
EXTT8=
EXTT9=
EXTT10=
EXTT11=
EXTT12=
EXTT13=
EXTT14=
EXTT15=
PLAYORDER=
